<svg class="step1" style="overflow: overflow" width="700" height="500" viewBox="0 0 1200 600"
    xmlns="http://www.w3.org/2000/svg">
    <mask id="theMask1">
        <path id="maskPath1" fill="none" stroke="#a7c567" stroke-linecap="square" linejoin="mitter-clip"
            stroke-width="10px"
            d="M762.641,682.788l97.7-93.971c63.689-81.619,99.867-236.1-79.563-316.991-127.466-51.31-232.19,99.5-118.659,143.869,75.512,28.859,152.119-90.143,32.189-155.687-139.492-73.4-405.5-2.951-405.5-2.951"
            transform="translate(15.401 -77.4)" />
    </mask>

    <g id="maskReveal" mask="url(#theMask1)">
        <path id="path1" fill="none" stroke="#a7c567" stroke-linecap="square" linejoin="mitter-clip"
            stroke-miterlimit="10" stroke-width="10px" stroke-dasharray="20, 20"
            d="M762.641,682.788l97.7-93.971c63.689-81.619,99.867-236.1-79.563-316.991-127.466-51.31-232.19,99.5-118.659,143.869,75.512,28.859,152.119-90.143,32.189-155.687-139.492-73.4-405.5-2.951-405.5-2.951"
            transform="translate(15.401 -77.4)" />
    </g>
</svg>